<svg xmlns="http://www.w3.org/2000/svg" width="430" height="240" viewBox="0 0 430 240"><g fill="none" fill-rule="evenodd"><g fill="#003057"><path d="M252.378 43.14c0-3.318 2.015-5.451 5.096-5.451H292.2c2.963 0 4.504 1.54 4.504 4.03v.592c0 2.608-1.541 3.911-4.504 3.911h-30.34v16.83h23.466c3.081 0 4.504 1.304 4.504 3.792v.237c0 2.608-1.541 4.03-4.504 4.03h-23.467v18.133h30.934c2.963 0 4.266 1.304 4.266 3.793v.474c0 2.726-1.303 4.148-4.266 4.148h-35.319a4.86 4.86 0 0 1-5.096-5.215V43.141zm58.074-.473a4.978 4.978 0 0 1 5.452-5.334h2.489c3.792 0 4.74 1.423 6.281 4.86l14.222 32 14.223-32c1.54-3.556 2.607-4.86 6.162-4.86h2.252c3.437 0 5.69 2.015 5.69 5.334v51.081c0 2.845-1.186 4.385-4.03 4.385h-1.304c-2.608 0-3.793-1.54-3.793-4.385V49.66l-13.274 29.867c-.948 2.37-2.015 4.148-6.044 4.148-4.03 0-5.097-1.778-6.163-4.148l-13.037-29.511v43.733c0 2.845-1.185 4.385-3.911 4.385h-1.541c-2.489 0-3.674-1.54-3.674-4.385V42.667z"/><path fill-rule="nonzero" d="M383.578 43.14c0-3.318 2.133-5.451 5.096-5.451h17.067c14.696 0 22.518 6.163 22.518 18.015s-6.281 16.71-17.896 17.659l17.54 20.86c.356.473-1.659 3.91-5.57 3.91-3.91 0-4.266-1.066-6.281-3.792l-16.356-20.03h-6.637v19.437c0 2.608-1.422 4.385-4.148 4.385h-1.304c-2.607 0-4.03-1.777-4.03-4.977V43.14zm22.044 23.586c8.77 0 12.919-4.03 12.919-10.548 0-6.519-4.385-10.548-13.274-10.548H392.94v21.096h12.681zm-153.244 55.23a4.86 4.86 0 0 1 5.096-5.334h17.067c14.578 0 22.4 6.163 22.4 18.015s-6.282 16.593-17.897 17.54l17.541 20.86c.474.593-1.66 3.911-5.57 3.911-3.911 0-4.148-.948-6.282-3.674l-16.355-20.148h-6.637v19.437c0 2.607-1.304 4.385-4.148 4.385h-1.304c-2.608 0-3.911-1.778-3.911-4.86v-50.132zm21.926 23.703c8.77 0 13.037-4.148 13.037-10.548s-4.504-10.667-13.274-10.667H261.74v21.215h12.563z"/><path d="M310.689 121.481c0-3.2 2.133-5.214 5.452-5.214h2.489c3.674 0 4.74 1.303 6.163 4.74l14.222 32 14.34-32c1.423-3.437 2.49-4.74 6.045-4.74h2.37c3.437 0 5.57 2.014 5.57 5.214v51.082c0 2.963-1.184 4.385-3.91 4.385h-1.304c-2.726 0-3.793-1.422-3.793-4.385v-43.97l-13.274 29.866c-1.066 2.37-2.015 4.03-6.163 4.03s-4.977-1.66-6.044-4.03l-13.156-29.63v43.734c0 2.963-1.066 4.385-3.792 4.385h-1.541c-2.607 0-3.674-1.422-3.674-4.385v-51.082zm73.126.475a4.86 4.86 0 0 1 5.096-5.334h34.726c2.963 0 4.504 1.422 4.504 4.03v.474c0 2.607-1.541 4.03-4.504 4.03h-30.222v16.71h23.348c3.081 0 4.504 1.304 4.504 3.912v.237c0 2.607-1.423 4.03-4.504 4.03h-23.348v18.133h30.815c2.963 0 4.385 1.303 4.385 3.792v.474c0 2.726-1.422 4.149-4.385 4.149h-35.32c-3.081 0-5.096-2.015-5.096-5.334v-49.303z"/></g><path fill="#003057" d="M148.2 192.948c27.615-12.681 54.281-40.652 54.281-91.615C202.481-.474 102.69-1.659 90.007.593c29.63 11.377 51.556 46.103 51.556 100.74 0 54.637-23.348 93.156-50.844 101.808 2.014 1.422 37.214 53.807 103.466 28.444-29.037-11.97-40.178-26.785-45.985-38.637z"/><path fill="#61A60E" d="M76.97 35.793c-12.089 10.31-23.11 35.674-23.11 66.251 0 30.578 11.021 55.941 23.11 66.252-22.4 25.126-75.14-2.252-75.14-66.726 0-68.266 52.503-90.903 75.14-65.777"/></g></svg>